<?xml version="1.0" encoding="utf-8"?>
<svg viewBox="0.108 0 265.892 105.323" style="enable-background:new 0 0 266 64.4;" xmlns="http://www.w3.org/2000/svg">
  <path d="M -0.729 23.71 L -0.729 85.21 L 0.471 85.21 C 5.571 77.81 14.171 72.91 23.871 72.91 C 33.571 72.91 42.171 77.71 47.271 85.11 L 48.471 85.11 L 48.471 23.71 L -0.729 23.71 Z"/>
  <path d="M 99.971 46.61 C 99.671 44.41 97.871 37.61 90.071 37.61 C 81.171 37.61 78.371 46.21 78.371 54.51 C 78.371 62.81 81.171 71.41 90.071 71.41 C 96.471 71.41 98.971 66.91 100.071 61.21 L 118.671 61.21 C 118.671 73.61 108.571 86.81 90.571 86.81 C 70.671 86.81 59.371 72.81 59.371 54.61 C 59.371 35.01 71.571 22.21 90.571 22.21 C 107.471 22.31 116.771 31.21 118.371 46.61 L 99.971 46.61 Z"/>
  <path d="M 126.471 23.71 L 153.471 23.71 L 162.271 59.91 L 162.471 59.91 L 171.271 23.71 L 198.271 23.71 L 198.271 85.21 L 180.271 85.21 L 180.271 45.71 L 180.071 45.71 L 169.371 85.21 L 155.271 85.21 L 144.571 45.71 L 144.371 45.71 L 144.371 85.21 L 126.471 85.21 L 126.471 23.71 Z"/>
  <path d="M 246.671 46.61 C 246.371 44.41 244.571 37.61 236.771 37.61 C 227.871 37.61 225.071 46.21 225.071 54.51 C 225.071 62.81 227.871 71.41 236.771 71.41 C 243.171 71.41 245.671 66.91 246.771 61.21 L 265.271 61.21 C 265.271 73.61 255.171 86.81 237.171 86.81 C 217.271 86.81 205.971 72.81 205.971 54.61 C 206.071 35.01 218.271 22.21 237.271 22.21 C 254.171 22.31 263.471 31.21 265.071 46.61 L 246.671 46.61 Z"/>
</svg>